<?xml version="1.0" standalone="no"?>
<!DOCTYPE svg PUBLIC "-//W3C//DTD SVG 20010904//EN"
 "http://www.w3.org/TR/2001/REC-SVG-20010904/DTD/svg10.dtd">
<svg version="1.0" xmlns="http://www.w3.org/2000/svg"
 width="1024.000000pt" height="1024.000000pt" viewBox="0 0 1024.000000 1024.000000"
 preserveAspectRatio="xMidYMid meet">

<g transform="translate(0.000000,1024.000000) scale(0.100000,-0.100000)"
fill="#000000" stroke="none">
<path d="M0 5120 l0 -5120 5120 0 5120 0 0 5120 0 5120 -5120 0 -5120 0 0
-5120z m5815 2742 c46 -23 81 -59 119 -119 17 -29 33 -43 47 -43 28 0 140 -50
134 -60 -3 -4 -17 -11 -32 -14 -16 -4 -52 -14 -80 -22 l-53 -15 0 -42 c0 -24
-6 -50 -12 -59 -22 -27 -200 -135 -298 -182 -132 -62 -239 -88 -386 -94 -89
-3 -143 0 -202 12 -184 37 -391 128 -551 241 -98 68 -191 152 -191 171 0 8 1
14 3 14 1 0 54 -18 117 -39 135 -46 237 -67 375 -80 224 -19 474 26 555 101
12 12 32 42 43 67 39 90 95 140 195 178 52 19 166 12 217 -15z m90 -654 c-12
-39 -76 -181 -98 -218 -97 -163 -265 -295 -447 -351 -65 -20 -95 -23 -230 -23
-174 0 -244 15 -391 78 -162 71 -397 225 -546 361 -72 65 -82 91 -30 81 96
-20 256 -27 366 -16 64 6 132 14 151 18 28 6 50 1 115 -26 329 -138 689 -111
1023 78 80 45 96 49 87 18z m-550 -1049 c359 -53 670 -218 941 -501 252 -263
407 -586 476 -993 17 -102 17 -616 0 -657 l-12 -28 -226 0 -226 0 8 58 c17
107 11 340 -10 422 -25 99 -80 238 -110 275 l-24 29 -27 -54 c-61 -120 -137
-199 -258 -265 l-67 -37 17 39 c64 152 55 321 -24 413 -49 57 -73 51 -73 -19
0 -91 -65 -238 -147 -330 -49 -55 -160 -138 -207 -155 -19 -6 -19 -6 -3 11 53
60 72 180 42 278 -14 47 -13 49 8 69 56 52 59 132 7 189 -25 28 -34 32 -80 32
-47 0 -55 -3 -84 -36 -31 -36 -31 -36 -66 -21 -45 19 -145 19 -192 -1 -36 -15
-37 -15 -53 9 -23 36 -75 58 -118 50 -42 -8 -84 -52 -92 -99 -8 -43 18 -110
50 -127 23 -12 23 -14 9 -42 -8 -16 -18 -61 -21 -99 -6 -73 10 -135 49 -191
27 -39 11 -35 -73 20 -135 88 -230 219 -264 363 -8 35 -15 79 -15 97 0 75 -59
41 -106 -61 -24 -53 -28 -75 -28 -152 0 -75 5 -101 28 -158 15 -38 26 -70 23
-73 -2 -2 -28 8 -58 23 -74 39 -207 173 -247 250 -18 34 -36 65 -41 67 -13 9
-89 -145 -115 -235 -38 -132 -51 -269 -37 -400 6 -60 14 -116 17 -124 6 -14
-21 -15 -222 -13 l-229 3 -8 50 c-5 28 -10 158 -10 290 -2 252 8 351 55 545
35 145 132 382 202 490 88 137 124 184 208 277 292 319 648 495 1083 537 59 6
270 -4 350 -15z m-1235 -1747 c0 -22 149 -234 203 -291 50 -50 57 -62 37 -56
-39 10 -158 94 -185 130 -14 17 -33 51 -44 76 -24 55 -38 149 -22 149 6 0 11
-4 11 -8z m2006 -54 c-10 -76 -49 -150 -109 -203 -44 -41 -133 -95 -153 -95
-4 0 20 28 53 63 56 58 158 203 185 263 19 42 31 28 24 -28z m1353 -844 c31
-11 72 -35 100 -60 l46 -42 -30 -43 c-37 -52 -55 -58 -96 -29 -71 51 -192 65
-264 30 -64 -31 -82 -86 -45 -133 25 -32 57 -42 187 -61 158 -24 223 -59 263
-143 18 -39 22 -60 18 -115 -8 -110 -60 -179 -174 -230 -71 -32 -224 -32 -308
1 -63 25 -129 78 -151 121 -13 25 -12 30 16 69 34 45 38 45 104 -5 69 -51 183
-75 259 -54 98 27 137 107 79 162 -30 29 -75 43 -168 54 -197 23 -294 104
-295 248 0 99 47 168 148 220 76 39 209 43 311 10z m-3924 -22 c19 -22 48 -55
63 -74 72 -92 279 -347 308 -381 l34 -37 0 260 0 260 74 0 74 0 6 -31 c3 -17
6 -202 6 -410 0 -366 -1 -380 -20 -399 -48 -48 -35 -62 -468 470 l-37 45 -5
-260 -5 -260 -70 0 -70 0 -3 414 c-1 297 1 418 9 427 22 27 66 16 104 -24z
m2023 -9 c22 -27 119 -145 217 -263 97 -118 181 -216 186 -218 5 -2 9 103 9
258 l0 261 73 -3 72 -3 3 -418 2 -417 -24 -11 c-14 -7 -36 -9 -50 -5 -27 7
-25 4 -271 306 -92 113 -171 207 -176 208 -5 2 -9 -102 -9 -236 0 -132 -3
-247 -6 -256 -9 -23 -139 -23 -148 0 -3 9 -6 195 -6 414 0 438 -1 430 60 430
22 0 38 -11 68 -47z m-3308 9 c168 -67 265 -198 277 -372 12 -162 -60 -294
-209 -383 -88 -52 -175 -68 -358 -65 l-155 3 -3 423 -2 424 197 -4 c175 -3
204 -7 253 -26z m988 -26 c6 -101 18 -95 -196 -98 l-187 -3 -3 -35 c-2 -19 -1
-64 3 -99 l7 -64 127 7 c71 4 135 4 144 0 14 -5 17 -20 17 -75 l0 -69 -144 0
c-122 0 -145 -2 -150 -16 -8 -20 -8 -108 0 -156 l7 -38 189 0 189 0 -3 -72 -3
-73 -265 0 -265 0 -3 423 -2 422 267 -2 268 -3 3 -49z m3604 32 c2 -13 2 -47
0 -75 l-4 -53 -179 0 -179 0 0 -101 0 -102 123 7 c68 4 131 4 140 0 14 -5 17
-20 17 -75 l0 -69 -126 0 c-69 0 -133 -4 -142 -9 -15 -8 -17 -23 -14 -105 l3
-96 180 0 179 0 0 -75 0 -75 -257 2 -258 3 -3 423 -2 422 259 0 259 0 4 -22z
m1569 0 c2 -24 2 -52 0 -100 l-1 -28 -120 0 -120 0 -2 -347 -3 -348 -70 0 -70
0 -6 340 c-3 187 -7 343 -8 347 0 4 -56 9 -123 10 l-123 3 -3 73 -3 72 326 0
325 0 1 -22z m-3598 -142 c43 -17 85 -68 93 -111 8 -43 -8 -84 -48 -127 l-29
-31 30 -31 c17 -16 32 -28 34 -25 2 2 18 23 36 47 l33 42 30 -17 c17 -10 32
-23 35 -30 5 -13 -20 -65 -49 -103 l-19 -24 38 -32 38 -32 -31 -39 c-39 -48
-54 -51 -92 -18 l-30 25 -53 -27 c-164 -82 -337 32 -305 201 4 20 22 52 42 72
31 34 34 40 24 67 -16 46 -12 99 10 135 37 61 140 89 213 58z"/>
<path d="M5656 7714 c-19 -18 -21 -55 -4 -72 7 -7 24 -12 38 -12 34 0 50 17
50 52 0 43 -53 64 -84 32z"/>
<path d="M1970 3094 l0 -277 108 5 c129 5 178 24 239 91 53 58 73 105 73 175
0 88 -18 131 -80 194 -69 69 -123 88 -252 88 l-88 0 0 -276z"/>
<path d="M4738 3259 c-26 -15 -22 -52 8 -80 l26 -24 19 24 c44 54 4 114 -53
80z"/>
<path d="M4690 3027 c-52 -27 -7 -117 59 -117 16 0 39 9 52 19 l24 20 -45 45
c-48 50 -53 52 -90 33z"/>
</g>
</svg>
