<svg xmlns="http://www.w3.org/2000/svg" xmlns:xlink="http://www.w3.org/1999/xlink" width="1080" zoomAndPan="magnify" viewBox="0 0 810 809.999993" height="1080" preserveAspectRatio="xMidYMid meet" version="1.0"><rect x="-81" width="972" fill="#ffffff" y="-80.999999" height="971.999992" fillOpacity="1"/><rect x="-81" width="972" fill="#ea580c" y="-80.999999" height="971.999992" fillOpacity="1"/><path fill="#000000" d="M -480.679688 544.46875 L -480.679688 1429.46875 L 1289.320312 1429.46875 L 1289.320312 -340.53125 L -480.679688 -340.53125 Z M 524.453125 70.507812 C 532.402344 74.484375 538.453125 80.707031 545.019531 91.078125 C 547.960938 96.089844 550.726562 98.511719 553.144531 98.511719 C 557.984375 98.511719 577.34375 107.152344 576.308594 108.882812 C 575.789062 109.574219 573.367188 110.785156 570.777344 111.300781 C 568.011719 111.992188 561.789062 113.722656 556.949219 115.105469 L 547.785156 117.699219 L 547.785156 124.957031 C 547.785156 129.105469 546.75 133.601562 545.710938 135.15625 C 541.910156 139.824219 511.140625 158.492188 494.203125 166.613281 C 471.386719 177.332031 452.890625 181.824219 427.480469 182.863281 C 412.097656 183.382812 402.765625 182.863281 392.566406 180.789062 C 360.761719 174.394531 324.980469 158.664062 297.324219 139.132812 C 280.386719 127.378906 264.308594 112.859375 264.308594 109.574219 C 264.308594 108.191406 264.484375 107.152344 264.828125 107.152344 C 265 107.152344 274.164062 110.265625 285.050781 113.894531 C 308.386719 121.847656 326.019531 125.476562 349.871094 127.722656 C 388.589844 131.007812 431.804688 123.230469 445.804688 110.265625 C 447.878906 108.191406 451.335938 103.003906 453.238281 98.683594 C 459.976562 83.128906 469.65625 74.484375 486.941406 67.917969 C 495.929688 64.632812 515.636719 65.84375 524.453125 70.507812 Z M 540.007812 183.554688 C 537.933594 190.296875 526.871094 214.839844 523.070312 221.234375 C 506.300781 249.410156 477.261719 272.226562 445.804688 281.90625 C 434.570312 285.363281 429.382812 285.882812 406.046875 285.882812 C 375.972656 285.882812 363.871094 283.289062 338.464844 272.398438 C 310.460938 260.128906 269.839844 233.507812 244.085938 210 C 231.640625 198.765625 229.914062 194.269531 238.902344 196 C 255.496094 199.457031 283.152344 200.667969 302.164062 198.765625 C 313.226562 197.726562 324.980469 196.34375 328.265625 195.652344 C 333.105469 194.617188 336.90625 195.480469 348.144531 200.148438 C 405.011719 224 467.238281 219.335938 524.96875 186.664062 C 538.796875 178.886719 541.5625 178.195312 540.007812 183.554688 Z M 444.941406 364.875 C 506.992188 374.035156 560.75 402.558594 607.59375 451.472656 C 651.152344 496.933594 677.945312 552.765625 689.871094 623.117188 C 692.808594 640.746094 692.808594 729.59375 689.871094 736.679688 L 687.796875 741.519531 L 609.667969 741.519531 L 611.050781 731.492188 C 613.988281 713 612.953125 672.722656 609.320312 658.550781 C 605 641.4375 595.492188 617.410156 590.308594 611.015625 L 586.160156 606.003906 L 581.492188 615.335938 C 570.949219 636.078125 557.8125 649.734375 536.898438 661.144531 L 525.316406 667.539062 L 528.253906 660.796875 C 539.316406 634.523438 537.761719 605.3125 524.105469 589.410156 C 515.636719 579.558594 511.488281 580.59375 511.488281 592.695312 C 511.488281 608.421875 500.253906 633.832031 486.078125 649.734375 C 477.609375 659.242188 458.421875 673.589844 450.296875 676.527344 C 447.015625 677.5625 447.015625 677.5625 449.78125 674.625 C 458.941406 664.253906 462.226562 643.511719 457.039062 626.574219 C 454.621094 618.449219 454.792969 618.101562 458.421875 614.644531 C 468.101562 605.65625 468.621094 591.828125 459.632812 581.976562 C 455.3125 577.136719 453.753906 576.445312 445.804688 576.445312 C 437.679688 576.445312 436.296875 576.964844 431.285156 582.667969 C 425.925781 588.890625 425.925781 588.890625 419.875 586.296875 C 412.097656 583.015625 394.8125 583.015625 386.6875 586.472656 C 380.464844 589.0625 380.292969 589.0625 377.527344 584.914062 C 373.550781 578.691406 364.5625 574.890625 357.132812 576.273438 C 349.871094 577.65625 342.613281 585.261719 341.230469 593.386719 C 339.847656 600.816406 344.339844 612.398438 349.871094 615.335938 C 353.847656 617.410156 353.847656 617.757812 351.425781 622.597656 C 350.042969 625.363281 348.316406 633.140625 347.796875 639.710938 C 346.761719 652.328125 349.527344 663.042969 356.265625 672.722656 C 360.933594 679.464844 358.167969 678.773438 343.648438 669.265625 C 320.3125 654.054688 303.894531 631.414062 298.015625 606.523438 C 296.632812 600.472656 295.421875 592.867188 295.421875 589.753906 C 295.421875 576.792969 285.226562 582.667969 277.101562 600.300781 C 272.953125 609.460938 272.261719 613.261719 272.261719 626.574219 C 272.261719 639.535156 273.125 644.03125 277.101562 653.882812 C 279.695312 660.453125 281.59375 665.984375 281.078125 666.5 C 280.730469 666.847656 276.238281 665.117188 271.050781 662.527344 C 258.261719 655.785156 235.269531 632.621094 228.355469 619.3125 C 225.246094 613.4375 222.132812 608.078125 221.269531 607.730469 C 219.023438 606.175781 205.886719 632.796875 201.390625 648.351562 C 194.824219 671.167969 192.578125 694.847656 194.996094 717.492188 C 196.035156 727.863281 197.417969 737.542969 197.933594 738.925781 C 198.972656 741.347656 194.304688 741.519531 159.5625 741.171875 L 119.980469 740.65625 L 118.597656 732.011719 C 117.730469 727.171875 116.867188 704.703125 116.867188 681.886719 C 116.523438 638.328125 118.25 621.214844 126.375 587.679688 C 132.425781 562.617188 149.191406 521.652344 161.289062 502.984375 C 176.5 479.304688 182.722656 471.179688 197.242188 455.105469 C 247.714844 399.964844 309.25 369.542969 384.441406 362.28125 C 394.640625 361.246094 431.113281 362.972656 444.941406 364.875 Z M 231.46875 666.847656 C 231.46875 670.648438 257.222656 707.292969 266.558594 717.148438 C 275.199219 725.789062 276.410156 727.863281 272.953125 726.828125 C 266.210938 725.097656 245.640625 710.578125 240.976562 704.355469 C 238.554688 701.417969 235.269531 695.539062 233.371094 691.21875 C 229.222656 681.710938 226.800781 665.464844 229.566406 665.464844 C 230.605469 665.464844 231.46875 666.15625 231.46875 666.847656 Z M 578.207031 676.179688 C 576.480469 689.316406 569.738281 702.109375 559.367188 711.269531 C 551.761719 718.355469 536.378906 727.691406 532.921875 727.691406 C 532.230469 727.691406 536.378906 722.851562 542.082031 716.800781 C 551.761719 706.777344 569.394531 681.710938 574.058594 671.339844 C 577.34375 664.082031 579.417969 666.5 578.207031 676.179688 Z M 812.078125 822.066406 C 817.433594 823.96875 824.523438 828.117188 829.363281 832.4375 L 837.3125 839.699219 L 832.128906 847.132812 C 825.730469 856.121094 822.621094 857.15625 815.535156 852.144531 C 803.261719 843.328125 782.347656 840.910156 769.902344 846.957031 C 758.839844 852.316406 755.726562 861.824219 762.121094 869.949219 C 766.445312 875.480469 771.976562 877.207031 794.445312 880.492188 C 821.757812 884.640625 832.992188 890.691406 839.90625 905.210938 C 843.015625 911.949219 843.707031 915.582031 843.015625 925.085938 C 841.632812 944.101562 832.644531 956.027344 812.941406 964.84375 C 800.667969 970.375 774.222656 970.375 759.703125 964.671875 C 748.8125 960.347656 737.40625 951.1875 733.601562 943.753906 C 731.355469 939.433594 731.527344 938.570312 736.367188 931.828125 C 742.246094 924.050781 742.9375 924.050781 754.34375 932.691406 C 766.269531 941.507812 785.976562 945.65625 799.113281 942.027344 C 816.050781 937.359375 822.792969 923.53125 812.769531 914.023438 C 807.582031 909.011719 799.804688 906.59375 783.730469 904.691406 C 749.675781 900.714844 732.910156 886.714844 732.738281 861.824219 C 732.738281 844.710938 740.863281 832.785156 758.320312 823.796875 C 771.457031 817.054688 794.445312 816.363281 812.078125 822.066406 Z M 133.808594 825.871094 C 137.089844 829.671875 142.105469 835.378906 144.695312 838.660156 C 157.140625 854.5625 192.921875 898.640625 197.933594 904.519531 L 203.8125 910.914062 L 203.8125 821.03125 L 229.394531 821.03125 L 230.429688 826.390625 C 230.949219 829.328125 231.46875 861.304688 231.46875 897.257812 C 231.46875 960.523438 231.296875 962.941406 228.011719 966.226562 C 219.714844 974.523438 221.960938 976.941406 147.117188 884.984375 L 140.722656 877.207031 L 139.855469 922.148438 L 138.992188 967.089844 L 114.792969 967.089844 L 114.273438 895.53125 C 114.101562 844.191406 114.449219 823.277344 115.832031 821.722656 C 119.632812 817.054688 127.238281 818.957031 133.808594 825.871094 Z M 483.484375 827.425781 C 487.289062 832.09375 504.054688 852.488281 520.996094 872.886719 C 537.761719 893.28125 552.28125 910.222656 553.144531 910.566406 C 554.007812 910.914062 554.699219 892.765625 554.699219 865.972656 L 554.699219 820.859375 L 567.320312 821.375 L 579.765625 821.894531 L 580.28125 894.148438 L 580.628906 966.226562 L 576.480469 968.128906 C 574.058594 969.335938 570.257812 969.683594 567.835938 968.992188 C 563.171875 967.78125 563.515625 968.300781 520.996094 916.097656 C 505.09375 896.566406 491.4375 880.320312 490.574219 880.144531 C 489.707031 879.800781 489.015625 897.777344 489.015625 920.9375 C 489.015625 943.753906 488.5 963.632812 487.980469 965.1875 C 486.425781 969.164062 463.953125 969.164062 462.398438 965.1875 C 461.878906 963.632812 461.359375 931.484375 461.359375 893.628906 C 461.359375 817.917969 461.1875 819.300781 471.730469 819.300781 C 475.535156 819.300781 478.300781 821.203125 483.484375 827.425781 Z M -88.308594 825.871094 C -59.269531 837.453125 -42.5 860.09375 -40.425781 890.171875 C -38.351562 918.171875 -50.796875 940.988281 -76.554688 956.375 C -91.765625 965.363281 -106.800781 968.128906 -138.433594 967.609375 L -165.226562 967.089844 L -165.746094 893.972656 L -166.089844 820.683594 L -132.039062 821.375 C -101.789062 821.894531 -96.777344 822.585938 -88.308594 825.871094 Z M 82.46875 830.363281 C 83.507812 847.824219 85.582031 846.785156 48.589844 847.304688 L 16.269531 847.824219 L 15.75 853.871094 C 15.402344 857.15625 15.578125 864.933594 16.269531 870.984375 L 17.476562 882.046875 L 39.429688 880.835938 C 51.703125 880.144531 62.765625 880.144531 64.320312 880.835938 C 66.742188 881.703125 67.257812 884.292969 67.257812 893.800781 L 67.257812 905.726562 L 42.367188 905.726562 C 21.28125 905.726562 17.304688 906.074219 16.441406 908.492188 C 15.058594 911.949219 15.058594 927.160156 16.441406 935.457031 L 17.652344 942.027344 L 82.988281 942.027344 L 82.46875 954.472656 L 81.953125 967.089844 L -9.660156 967.089844 L -10.179688 893.972656 L -10.523438 821.03125 L 35.628906 821.375 L 81.953125 821.894531 Z M 705.425781 824.832031 C 705.773438 827.082031 705.773438 832.957031 705.425781 837.796875 L 704.734375 846.957031 L 642.855469 846.957031 L 642.855469 882.046875 L 664.117188 880.835938 C 675.871094 880.144531 686.757812 880.144531 688.316406 880.835938 C 690.734375 881.703125 691.253906 884.292969 691.253906 893.800781 L 691.253906 905.726562 L 669.472656 905.726562 C 657.546875 905.726562 646.484375 906.417969 644.929688 907.285156 C 642.335938 908.667969 641.992188 911.257812 642.507812 925.433594 L 643.027344 942.027344 L 705.082031 942.027344 L 705.082031 967.953125 L 660.660156 967.609375 L 616.0625 967.089844 L 615.542969 893.972656 L 615.199219 821.03125 L 704.734375 821.03125 Z M 976.632812 824.832031 C 976.976562 828.980469 976.976562 833.820312 976.632812 842.117188 L 976.457031 846.957031 L 934.972656 846.957031 L 934.628906 906.9375 L 934.109375 967.089844 L 909.910156 967.089844 L 908.875 908.320312 C 908.355469 875.996094 907.664062 849.03125 907.492188 848.339844 C 907.492188 847.648438 897.8125 846.785156 886.230469 846.613281 L 864.96875 846.09375 L 864.449219 833.476562 L 863.933594 821.03125 L 976.457031 821.03125 Z M 354.710938 849.378906 C 362.144531 852.316406 369.402344 861.132812 370.785156 868.566406 C 372.167969 875.996094 369.402344 883.085938 362.488281 890.515625 L 357.476562 895.875 L 362.664062 901.234375 C 365.601562 904 368.195312 906.074219 368.539062 905.554688 C 368.886719 905.210938 371.652344 901.578125 374.761719 897.429688 L 380.464844 890.171875 L 385.652344 893.109375 C 388.589844 894.839844 391.183594 897.085938 391.703125 898.296875 C 392.566406 900.542969 388.246094 909.53125 383.230469 916.097656 L 379.949219 920.246094 L 386.515625 925.777344 L 393.085938 931.308594 L 387.726562 938.050781 C 380.984375 946.347656 378.390625 946.867188 371.824219 941.164062 L 366.636719 936.839844 L 357.476562 941.507812 C 329.128906 955.683594 299.226562 935.976562 304.757812 906.765625 C 305.449219 903.308594 308.558594 897.777344 312.015625 894.320312 C 317.375 888.441406 317.894531 887.40625 316.164062 882.738281 C 313.398438 874.789062 314.089844 865.625 317.894531 859.402344 C 324.289062 848.859375 342.09375 844.019531 354.710938 849.378906 Z M 354.710938 849.378906 " fillOpacity="1" fillRule="nonzero"/><path fill="#000000" d="M 496.96875 96.089844 C 493.683594 99.203125 493.339844 105.597656 496.277344 108.535156 C 497.488281 109.746094 500.425781 110.609375 502.84375 110.609375 C 508.722656 110.609375 511.488281 107.671875 511.488281 101.621094 C 511.488281 94.191406 502.328125 90.558594 496.96875 96.089844 Z M 496.96875 96.089844 " fillOpacity="1" fillRule="nonzero"/></svg>